HIERARCHY
ROOT Hips
{
  OFFSET -251.623 81.6579 649.661
  CHANNELS 6 Xposition Yposition Zposition Zrotation Xrotation Yrotation
  JOINT Spine
  {
    OFFSET 0 8 -1.41094e-05
    CHANNELS 6 Xposition Yposition Zposition Zrotation Xrotation Yrotation
    JOINT Spine1
    {
      OFFSET 0 8 1.26042e-05
      CHANNELS 6 Xposition Yposition Zposition Zrotation Xrotation Yrotation
      JOINT Spine2
      {
        OFFSET 1.04513e-05 8 1.76281e-05
        CHANNELS 6 Xposition Yposition Zposition Zrotation Xrotation Yrotation
        JOINT Spine3
        {
          OFFSET 0 8 0
          CHANNELS 6 Xposition Yposition Zposition Zrotation Xrotation Yrotation
          JOINT Neck
          {
            OFFSET 5.23214e-05 17.0003 -0.000284318
            CHANNELS 6 Xposition Yposition Zposition Zrotation Xrotation Yrotation
            JOINT Head
            {
              OFFSET 1.06359e-05 10.7999 -6.55967e-05
              CHANNELS 6 Xposition Yposition Zposition Zrotation Xrotation Yrotation
              End Site
              {
                OFFSET 0 20.25 0
              }
            }
          }
          JOINT LeftShoulder
          {
            OFFSET 4.99999 17 -4.12089e-05
            CHANNELS 6 Xposition Yposition Zposition Zrotation Xrotation Yrotation
            JOINT LeftShoulder2
            {
              OFFSET 6.45 0 0
              CHANNELS 6 Xposition Yposition Zposition Zrotation Xrotation Yrotation
              JOINT LeftArm
              {
                OFFSET 6.44999 2.12013e-05 1.39942e-05
                CHANNELS 6 Xposition Yposition Zposition Zrotation Xrotation Yrotation
                JOINT LeftForeArm
                {
                  OFFSET -1.20187e-05 -32.4 -2.00004
                  CHANNELS 6 Xposition Yposition Zposition Zrotation Xrotation Yrotation
                  JOINT LeftHand
                  {
                    OFFSET 0 -25.65 2.00001
                    CHANNELS 6 Xposition Yposition Zposition Zrotation Xrotation Yrotation
                    JOINT LeftHandThumb1
                    {
                      OFFSET -0.499992 -1.49998 2.64999
                      CHANNELS 6 Xposition Yposition Zposition Zrotation Xrotation Yrotation
                      JOINT LeftHandThumb2
                      {
                        OFFSET -2.04424e-05 -3.80005 3.69997
                        CHANNELS 6 Xposition Yposition Zposition Zrotation Xrotation Yrotation
                        JOINT LeftHandThumb3
                        {
                          OFFSET 0 -2.99999 2.70001
                          CHANNELS 6 Xposition Yposition Zposition Zrotation Xrotation Yrotation
                          End Site
                          {
                            OFFSET 1.31774e-05 -2.3 1.79998
                          }
                        }
                      }
                    }
                    JOINT LeftHandIndex
                    {
                      OFFSET 0 -1.90003 1.60001
                      CHANNELS 6 Xposition Yposition Zposition Zrotation Xrotation Yrotation
                      JOINT LeftHandIndex1
                      {
                        OFFSET 0 -8.29999 1.89998
                        CHANNELS 6 Xposition Yposition Zposition Zrotation Xrotation Yrotation
                        JOINT LeftHandIndex2
                        {
                          OFFSET 4.15579e-05 -4.50002 1.1948e-05
                          CHANNELS 6 Xposition Yposition Zposition Zrotation Xrotation Yrotation
                          JOINT LeftHandIndex3
                          {
                            OFFSET 0 -3.39999 0
                            CHANNELS 6 Xposition Yposition Zposition Zrotation Xrotation Yrotation
                            End Site
                            {
                              OFFSET 0 -2.59997 0
                            }
                          }
                        }
                      }
                    }
                    JOINT LeftHandMiddle
                    {
                      OFFSET -0.249996 -2.20002 0.400002
                      CHANNELS 6 Xposition Yposition Zposition Zrotation Xrotation Yrotation
                      JOINT LeftHandMiddle1
                      {
                        OFFSET 0 -8.3 1.00001
                        CHANNELS 6 Xposition Yposition Zposition Zrotation Xrotation Yrotation
                        JOINT LeftHandMiddle2
                        {
                          OFFSET -1.05767e-05 -4.64995 0
                          CHANNELS 6 Xposition Yposition Zposition Zrotation Xrotation Yrotation
                          JOINT LeftHandMiddle3
                          {
                            OFFSET 1.17423e-05 -3.30004 -2.43974e-05
                            CHANNELS 6 Xposition Yposition Zposition Zrotation Xrotation Yrotation
                            End Site
                            {
                              OFFSET -5.01124e-05 -2.69999 1.20661e-05
                            }
                          }
                        }
                      }
                    }
                    JOINT LeftHandRing
                    {
                      OFFSET -0.499995 -2.15002 -0.800003
                      CHANNELS 6 Xposition Yposition Zposition Zrotation Xrotation Yrotation
                      JOINT LeftHandRing1
                      {
                        OFFSET -1.1275e-05 -7.75002 -0.200002
                        CHANNELS 6 Xposition Yposition Zposition Zrotation Xrotation Yrotation
                        JOINT LeftHandRing2
                        {
                          OFFSET -1.16955e-05 -3.79996 0
                          CHANNELS 6 Xposition Yposition Zposition Zrotation Xrotation Yrotation
                          JOINT LeftHandRing3
                          {
                            OFFSET 1.07107e-05 -3.40004 0
                            CHANNELS 6 Xposition Yposition Zposition Zrotation Xrotation Yrotation
                            End Site
                            {
                              OFFSET 0 -2.6 0
                            }
                          }
                        }
                      }
                    }
                    JOINT LeftHandPinky
                    {
                      OFFSET -0.749996 -1.75002 -1.84999
                      CHANNELS 6 Xposition Yposition Zposition Zrotation Xrotation Yrotation
                      JOINT LeftHandPinky1
                      {
                        OFFSET -1.30713e-05 -7.15 -0.999999
                        CHANNELS 6 Xposition Yposition Zposition Zrotation Xrotation Yrotation
                        JOINT LeftHandPinky2
                        {
                          OFFSET 0 -3 -1.25926e-05
                          CHANNELS 6 Xposition Yposition Zposition Zrotation Xrotation Yrotation
                          JOINT LeftHandPinky3
                          {
                            OFFSET 2.14948e-05 -2.35 0
                            CHANNELS 6 Xposition Yposition Zposition Zrotation Xrotation Yrotation
                            End Site
                            {
                              OFFSET 0 -2.09997 0
                            }
                          }
                        }
                      }
                    }
                  }
                }
              }
            }
          }
          JOINT RightShoulder
          {
            OFFSET -5 17 0
            CHANNELS 6 Xposition Yposition Zposition Zrotation Xrotation Yrotation
            JOINT RightShoulder2
            {
              OFFSET -6.45 0 0
              CHANNELS 6 Xposition Yposition Zposition Zrotation Xrotation Yrotation
              JOINT RightArm
              {
                OFFSET -6.45 0 -1.09463e-05
                CHANNELS 6 Xposition Yposition Zposition Zrotation Xrotation Yrotation
                JOINT RightForeArm
                {
                  OFFSET 2.32218e-05 -32.4 -2.00002
                  CHANNELS 6 Xposition Yposition Zposition Zrotation Xrotation Yrotation
                  JOINT RightHand
                  {
                    OFFSET 0 -25.65 2
                    CHANNELS 6 Xposition Yposition Zposition Zrotation Xrotation Yrotation
                    JOINT RightHandThumb1
                    {
                      OFFSET 0.500008 -1.50003 2.64999
                      CHANNELS 6 Xposition Yposition Zposition Zrotation Xrotation Yrotation
                      JOINT RightHandThumb2
                      {
                        OFFSET 0 -3.79998 3.70001
                        CHANNELS 6 Xposition Yposition Zposition Zrotation Xrotation Yrotation
                        JOINT RightHandThumb3
                        {
                          OFFSET 0 -3.00001 2.7
                          CHANNELS 6 Xposition Yposition Zposition Zrotation Xrotation Yrotation
                          End Site
                          {
                            OFFSET -1.59395e-05 -2.29999 1.79999
                          }
                        }
                      }
                    }
                    JOINT RightHandIndex
                    {
                      OFFSET 0 -1.90001 1.6
                      CHANNELS 6 Xposition Yposition Zposition Zrotation Xrotation Yrotation
                      JOINT RightHandIndex1
                      {
                        OFFSET 2.00882e-05 -8.30001 1.89995
                        CHANNELS 6 Xposition Yposition Zposition Zrotation Xrotation Yrotation
                        JOINT RightHandIndex2
                        {
                          OFFSET 0 -4.50002 -1.83652e-05
                          CHANNELS 6 Xposition Yposition Zposition Zrotation Xrotation Yrotation
                          JOINT RightHandIndex3
                          {
                            OFFSET 7.10057e-05 -3.39999 0
                            CHANNELS 6 Xposition Yposition Zposition Zrotation Xrotation Yrotation
                            End Site
                            {
                              OFFSET 1.14823e-05 -2.6 1.65363e-05
                            }
                          }
                        }
                      }
                    }
                    JOINT RightHandMiddle
                    {
                      OFFSET 0.250009 -2.20002 0.399997
                      CHANNELS 6 Xposition Yposition Zposition Zrotation Xrotation Yrotation
                      JOINT RightHandMiddle1
                      {
                        OFFSET -1.49436e-05 -8.29999 1.00001
                        CHANNELS 6 Xposition Yposition Zposition Zrotation Xrotation Yrotation
                        JOINT RightHandMiddle2
                        {
                          OFFSET -5.4586e-05 -4.65 -1.83227e-05
                          CHANNELS 6 Xposition Yposition Zposition Zrotation Xrotation Yrotation
                          JOINT RightHandMiddle3
                          {
                            OFFSET 3.2925e-05 -3.29999 2.10303e-05
                            CHANNELS 6 Xposition Yposition Zposition Zrotation Xrotation Yrotation
                            End Site
                            {
                              OFFSET 0 -2.69999 0
                            }
                          }
                        }
                      }
                    }
                    JOINT RightHandRing
                    {
                      OFFSET 0.500004 -2.15001 -0.799996
                      CHANNELS 6 Xposition Yposition Zposition Zrotation Xrotation Yrotation
                      JOINT RightHandRing1
                      {
                        OFFSET 0 -7.75 -0.199992
                        CHANNELS 6 Xposition Yposition Zposition Zrotation Xrotation Yrotation
                        JOINT RightHandRing2
                        {
                          OFFSET 0 -3.80001 -2.47255e-05
                          CHANNELS 6 Xposition Yposition Zposition Zrotation Xrotation Yrotation
                          JOINT RightHandRing3
                          {
                            OFFSET 0 -3.39999 1.63865e-05
                            CHANNELS 6 Xposition Yposition Zposition Zrotation Xrotation Yrotation
                            End Site
                            {
                              OFFSET 0 -2.59998 0
                            }
                          }
                        }
                      }
                    }
                    JOINT RightHandPinky
                    {
                      OFFSET 0.749992 -1.75 -1.84999
                      CHANNELS 6 Xposition Yposition Zposition Zrotation Xrotation Yrotation
                      JOINT RightHandPinky1
                      {
                        OFFSET 1.63551e-05 -7.15002 -1.00001
                        CHANNELS 6 Xposition Yposition Zposition Zrotation Xrotation Yrotation
                        JOINT RightHandPinky2
                        {
                          OFFSET 0 -3 0
                          CHANNELS 6 Xposition Yposition Zposition Zrotation Xrotation Yrotation
                          JOINT RightHandPinky3
                          {
                            OFFSET 0 -2.34999 0
                            CHANNELS 6 Xposition Yposition Zposition Zrotation Xrotation Yrotation
                            End Site
                            {
                              OFFSET 0 -2.09996 -3.82863e-05
                            }
                          }
                        }
                      }
                    }
                  }
                }
              }
            }
          }
        }
      }
    }
  }
  JOINT LeftUpLeg
  {
    OFFSET 8 0 1.02775e-05
    CHANNELS 6 Xposition Yposition Zposition Zrotation Xrotation Yrotation
    JOINT LeftLeg
    {
      OFFSET 0 -45 -1
      CHANNELS 6 Xposition Yposition Zposition Zrotation Xrotation Yrotation
      JOINT LeftFoot
      {
        OFFSET 0 -41.0001 -2.00006
        CHANNELS 6 Xposition Yposition Zposition Zrotation Xrotation Yrotation
        JOINT LeftToeBase
        {
          OFFSET -3.02701e-05 -7.50001 12.5
          CHANNELS 6 Xposition Yposition Zposition Zrotation Xrotation Yrotation
          JOINT LeftFootToe
          {
            OFFSET 0 0 4
            CHANNELS 6 Xposition Yposition Zposition Zrotation Xrotation Yrotation
            End Site
            {
              OFFSET 0 0 0
            }
          }
        }
      }
    }
  }
  JOINT RightUpLeg
  {
    OFFSET -8 0 -1.02775e-05
    CHANNELS 6 Xposition Yposition Zposition Zrotation Xrotation Yrotation
    JOINT RightLeg
    {
      OFFSET 0 -45 -1.00001
      CHANNELS 6 Xposition Yposition Zposition Zrotation Xrotation Yrotation
      JOINT RightFoot
      {
        OFFSET -1.77913e-05 -41 -1.99992
        CHANNELS 6 Xposition Yposition Zposition Zrotation Xrotation Yrotation
        JOINT RightToeBase
        {
          OFFSET 2.30258e-05 -7.50002 12.5
          CHANNELS 6 Xposition Yposition Zposition Zrotation Xrotation Yrotation
          JOINT RightFootToe
          {
            OFFSET 0 0 4
            CHANNELS 6 Xposition Yposition Zposition Zrotation Xrotation Yrotation
            End Site
            {
              OFFSET 0 0 0
            }
          }
        }
      }
    }
  }
}
MOTION
Frames:	3
Frame Time:	0.0111111
-247.262 74.3357 656.69 -6.44211 11.8441 -166.569 -5.68434e-14 8 0 5.99124 10.589 -10.0998 5.68434e-14 8 0 2.70989 5.73919 -1.96348 0 8 0 1.3298 2.88354 -0.947323 0 8 -1.13687e-13 1.328 2.87908 -0.947799 5.68434e-14 17 1.13687e-13 2.36327 3.64139 -4.12251 0 10.8 1.13687e-13 5.95071 8.21667 -9.91125 5 17 0 0.910321 0.729121 -3.29174 6.45 1.42109e-14 1.13687e-13 -0.952053 0.0122564 0.599903 6.45 -4.26326e-14 0 72.987 -35.6897 53.1558 0 -32.4 -2 -17.1983 -64.6094 -24.3696 5.68434e-14 -25.65 2 30.2266 -10.944 -43.4775 -0.5 -1.5 2.65 -19.7274 -34.9594 -10.8647 -5.68434e-14 -3.8 3.7 -0.101838 37.1399 -0.00878428 0 -3 2.7 0.0351382 -0.502209 0.0151767 0 -1.9 1.6 6.36111e-15 -7.95139e-15 -9.54166e-15 -5.68434e-14 -8.3 1.9 -1.3166 3.18198 0.167165 0 -4.5 0 -81.0482 -0.0060001 0.00214039 0 -3.4 0 -67.7889 -0.00630539 -0.0112373 -0.25 -2.2 0.4 6.36111e-15 -7.95139e-15 -9.54166e-15 0 -8.3 1 -8.26743 8.75464 1.07669 0 -4.65 0 -38.0522 -0.0269676 0.0144222 -2.84217e-14 -3.3 0 -26.9105 -0.0175064 -0.001198 -0.5 -2.15 -0.8 6.36111e-15 -7.95139e-15 -9.54166e-15 0 -7.75 -0.2 -19.9433 13.57 3.32642 5.68434e-14 -3.8 0 -85.061 0.0247607 0.0176767 0 -3.4 0 -76.1322 -0.023792 0.0620869 -0.75 -1.75 -1.85 6.36111e-15 -7.95139e-15 -9.54166e-15 0 -7.15 -1 -29.3977 17.3644 5.98688 5.68434e-14 -3 -1.13687e-13 -67.8888 -0.180801 -0.0954205 2.84217e-14 -2.35 0 -50.1083 -0.048328 -0.191158 -5 17 1.13687e-13 12.7749 -2.47529 -0.418534 -6.45 -1.42109e-14 0 -1.70106 0.97726 -1.91018 -6.45 2.84217e-14 0 -36.969 24.6706 -37.8911 0 -32.4 -2 -24.9128 -22.5839 -27.5696 0 -25.65 2 -2.95084 -39.6534 17.7045 0.5 -1.5 2.65 16.0965 5.726 -0.965721 0 -3.8 3.7 0.815872 46.7003 -0.343213 -1.42109e-14 -3 2.7 0.101015 45.6938 -0.10024 0 -1.9 1.6 3.97569e-15 -7.95139e-16 -0 -2.84217e-14 -8.3 1.9 8.86366 -22.5757 1.44317 2.84217e-14 -4.5 -5.68434e-14 71.7929 -0.0156813 0.0220124 5.68434e-14 -3.4 -5.68434e-14 52.0211 0.0207823 0.02879 0.25 -2.2 0.4 3.97569e-15 -7.95139e-16 -0 2.84217e-14 -8.3 1 4.92007 -17.4756 0.396249 5.68434e-14 -4.65 -5.68434e-14 67.5272 -0.0218294 0.0241592 0 -3.3 0 48.7548 0.00847438 0.0320311 0.5 -2.15 -0.8 3.97569e-15 -7.95139e-16 -0 -2.84217e-14 -7.75 -0.2 3.88201 -15.6764 0.100604 -2.84217e-14 -3.8 0 41.9268 -0.034731 0.0183884 -2.84217e-14 -3.4 0 29.2888 -0.0133926 0.02006 0.75 -1.75 -1.85 3.97569e-15 -7.95139e-16 -0 -5.68434e-14 -7.15 -1 3.07483 -14.0571 -0.0970255 2.84217e-14 -3 0 0.00331325 0.015727 -0.0032669 0 -2.35 0 -2.05826e-06 0.0483642 -0.0119953 8 0 0 4.95273 -44.8066 6.03439 0 -45 -1 -0.781296 45.6563 -10.1662 0 -41 -2 -3.98246 -0.692716 6.22734 0 -7.5 12.5 -4.90823e-08 4.27529e-06 1.64588e-08 5.68434e-14 -2.84217e-14 4 0.99777 -0.415163 37.4349 -8 0 0 0.148653 -45.3539 1.20786 0 -45 -1 -10.8122 79.8532 13.3298 0 -41 -2 -1.73785 3.25208 -0.63345 0 -7.5 12.5 -1.86977e-07 -24.8029 -4.28298e-07 5.68434e-14 0 4 -5.16649 23.4388 26.8844 
-247.262 74.3656 656.624 -6.47176 11.8424 -166.847 0 8 1.13687e-13 5.94504 10.5879 -10.0801 -5.68434e-14 8 1.13687e-13 2.72078 5.74772 -1.91244 -5.68434e-14 8 0 1.33584 2.88755 -0.92162 5.68434e-14 8 -1.13687e-13 1.33343 2.88292 -0.920149 -5.68434e-14 17 0 2.3245 3.66914 -4.08237 -5.68434e-14 10.8 -1.13687e-13 5.8596 8.28894 -9.81584 5 17 1.13687e-13 0.878695 0.727819 -3.20382 6.45 2.84217e-14 0 -0.958952 0.000703598 0.566987 6.45 -4.26326e-14 0 73.8409 -35.7403 53.2056 -1.13687e-13 -32.4 -2 -16.8581 -64.2836 -23.924 0 -25.65 2 29.1956 -11.2975 -43.1331 -0.5 -1.5 2.65 -19.8437 -35.3505 -11.4879 -5.68434e-14 -3.8 3.7 -0.101745 36.9151 -0.00875833 0 -3 2.7 0.0351382 -0.502209 0.0151767 -5.68434e-14 -1.9 1.6 -5.29669e-31 -3.18055e-15 -9.54166e-15 5.68434e-14 -8.3 1.9 -1.35577 3.58033 0.17383 0 -4.5 -5.68434e-14 -80.9083 -0.00754573 0.00214039 -1.42109e-14 -3.4 5.68434e-14 -67.5402 -0.00621755 -0.018029 -0.25 -2.2 0.4 -5.29669e-31 -3.18055e-15 -9.54166e-15 -5.68434e-14 -8.3 1 -9.20024 9.26116 1.23009 5.68434e-14 -4.65 0 -37.6138 -0.0376094 0.0144222 -2.84217e-14 -3.3 1.13687e-13 -26.6477 -0.0244745 -0.001198 -0.5 -2.15 -0.8 -5.29669e-31 -3.18055e-15 -9.54166e-15 5.68434e-14 -7.75 -0.2 -22.1942 13.548 3.70833 0 -3.8 -1.13687e-13 -85.4991 0.0151394 0.0120908 5.68434e-14 -3.4 0 -77.0691 -0.0171566 0.0381478 -0.75 -1.75 -1.85 -5.29669e-31 -3.18055e-15 -9.54166e-15 0 -7.15 -1 -33.0268 17.0175 6.67375 0 -3 0 -65.3898 -0.26334 -0.126491 2.84217e-14 -2.35 0 -47.7054 -0.0829701 -0.254602 -5 17 0 12.7408 -2.40772 -0.422241 -6.45 0 1.13687e-13 -1.70197 0.968382 -1.88235 -6.45 2.84217e-14 0 -36.9865 24.6726 -37.8268 5.68434e-14 -32.4 -2 -24.8837 -22.8319 -27.6817 -5.68434e-14 -25.65 2 -3.26748 -39.7218 17.0022 0.5 -1.5 2.65 16.0303 5.91659 -1.02626 0 -3.8 3.7 0.724352 47.3795 -0.305285 0 -3 2.7 0.0938331 45.6538 -0.0902657 2.84217e-14 -1.9 1.6 2.38542e-15 0 3.18055e-15 0 -8.3 1.9 8.51912 -22.2496 1.36405 0 -4.5 0 72.7978 -0.00927509 0.0129312 5.68434e-14 -3.4 -1.13687e-13 53.1304 0.0207823 0.017645 0.25 -2.2 0.4 2.38542e-15 0 3.18055e-15 2.84217e-14 -8.3 1 4.68712 -17.1467 0.363816 0 -4.65 0 68.5912 -0.0123463 0.0143209 5.68434e-14 -3.3 5.68434e-14 49.8189 0.012048 0.0194212 0.5 -2.15 -0.8 2.38542e-15 0 3.18055e-15 -2.84217e-14 -7.75 -0.2 3.7187 -15.4083 0.0880207 0 -3.8 -1.13687e-13 43.1725 -0.0207666 0.0121889 0 -3.4 0 30.0555 -0.00756216 0.0128783 0.75 -1.75 -1.85 2.38542e-15 0 3.18055e-15 -2.84217e-14 -7.15 -1 2.89451 -13.7128 -0.0968814 0 -3 1.13687e-13 0.00331325 0.015727 -0.0032669 0 -2.35 0 -2.05826e-06 0.0483642 -0.0119953 8 0 -1.13687e-13 5.02486 -44.4948 6.3101 -5.68434e-14 -45 -1 -0.741146 45.1486 -10.3678 -5.68434e-14 -41 -2 -4.07709 -0.360724 5.98634 0 -7.5 12.5 -4.90823e-08 4.27529e-06 1.64587e-08 0 0 4 1.22595 -0.872965 37.4679 -8 0 0 0.402918 -45.3161 1.59259 0 -45 -1 -10.7976 79.8387 13.3115 0 -41 -2 -1.77555 3.24803 -0.579087 5.68434e-14 -7.5 12.5 -1.87072e-07 -24.8144 -4.28338e-07 5.68434e-14 0 4 -5.09664 23.462 26.8744 
-247.271 74.3929 656.566 -6.46312 11.8151 -167.103 0 8 0 5.9239 10.5682 -10.0663 0 8 1.13687e-13 2.72728 5.7578 -1.86069 0 8 0 1.33947 2.89233 -0.895626 0 8 0 1.33813 2.88746 -0.893659 5.68434e-14 17 1.13687e-13 2.28983 3.6847 -4.04916 0 10.8 1.13687e-13 5.77737 8.33326 -9.73601 5 17 1.13687e-13 0.863856 0.735568 -3.13067 6.45 1.42109e-14 1.13687e-13 -0.960698 -0.00694241 0.545107 6.45 -4.26326e-14 0 74.7806 -35.8901 53.1824 -1.13687e-13 -32.4 -2 -16.3577 -63.9027 -23.3597 0 -25.65 2 28.0859 -11.7472 -42.6841 -0.5 -1.5 2.65 -19.8799 -35.8718 -12.1239 -5.68434e-14 -3.8 3.7 -0.0981598 36.784 -0.00874332 0 -3 2.7 0.0351382 -0.502209 0.0151767 0 -1.9 1.6 -3.18055e-15 -3.18055e-15 -9.54166e-15 0 -8.3 1.9 -1.40773 4.03253 0.183464 0 -4.5 5.68434e-14 -80.7106 -0.0105312 0.00228495 0 -3.4 0 -67.182 -0.00828441 -0.0235816 -0.25 -2.2 0.4 -3.18055e-15 -3.18055e-15 -9.54166e-15 5.68434e-14 -8.3 1 -10.1839 9.83405 1.42051 0 -4.65 0 -37.0907 -0.038928 0.0144222 0 -3.3 0 -26.3336 -0.0254862 -0.00110847 -0.5 -2.15 -0.8 -3.18055e-15 -3.18055e-15 -9.54166e-15 0 -7.75 -0.2 -24.554 13.4723 4.11775 0 -3.8 0 -85.4766 -0.00696426 -0.00169541 -8.52651e-14 -3.4 0 -77.0478 -0.00138633 -0.0149027 -0.75 -1.75 -1.85 -3.18055e-15 -3.18055e-15 -9.54166e-15 0 -7.15 -1 -36.8013 16.5255 7.36777 0 -3 0 -62.0818 -0.360248 -0.145177 -5.68434e-14 -2.35 0 -44.8579 -0.134362 -0.30254 -5 17 0 12.7276 -2.35884 -0.438862 -6.45 0 0 -1.70314 0.960315 -1.85851 -6.45 2.84217e-14 0 -37.028 24.7064 -37.6914 2.84217e-14 -32.4 -2 -24.8557 -23.1019 -27.7452 -5.68434e-14 -25.65 2 -3.53681 -39.752 16.467 0.5 -1.5 2.65 16.057 6.09179 -1.06324 0 -3.8 3.7 0.659769 47.8072 -0.279034 0 -3 2.7 0.0890281 45.6966 -0.0834857 5.68434e-14 -1.9 1.6 7.95139e-16 7.95139e-16 6.36111e-15 -2.84217e-14 -8.3 1.9 8.25482 -21.9914 1.30354 0 -4.5 0 73.5606 -0.00474098 0.00663172 0 -3.4 0 53.9984 0.0207823 0.00946181 0.25 -2.2 0.4 7.95139e-16 7.95139e-16 6.36111e-15 2.84217e-14 -8.3 1 4.51442 -16.8966 0.339776 -2.84217e-14 -4.65 -5.68434e-14 69.4066 -0.00615382 0.00746049 5.68434e-14 -3.3 5.68434e-14 50.6592 0.0154171 0.0103955 0.5 -2.15 -0.8 7.95139e-16 7.95139e-16 6.36111e-15 -2.84217e-14 -7.75 -0.2 3.60096 -15.2112 0.0788008 -2.84217e-14 -3.8 -1.13687e-13 44.1752 -0.0107355 0.00788795 0 -3.4 0 30.678 -0.00336495 0.00774394 0.75 -1.75 -1.85 7.95139e-16 7.95139e-16 6.36111e-15 0 -7.15 -1 2.77894 -13.4881 -0.0967896 -2.84217e-14 -3 0 0.0025676 0.015727 -0.0032669 0 -2.35 0 -0.000672468 0.0483642 -0.0116506 8 0 1.13687e-13 5.11091 -44.2959 6.53647 0 -45 -1 -0.696797 44.8369 -10.5737 0 -41 -2 -4.16178 -0.0332264 5.80678 0 -7.5 12.5 -4.90823e-08 4.27529e-06 1.64588e-08 0 1.42109e-14 4 1.42087 -1.30048 37.5067 -8 2.84217e-14 1.13687e-13 0.636217 -45.31 1.92321 0 -45 -1 -10.7814 79.8173 13.2973 0 -41 -2 -1.81653 3.24408 -0.494602 5.68434e-14 -7.5 12.5 -1.8712e-07 -24.8203 -4.28358e-07 0 0 4 -5.0319 23.4828 26.8615 
